<svg xmlns="http://www.w3.org/2000/svg" width="12" height="12" viewBox="0 0 12 12" fill="none"><g clip-path="url(#clip0_2096_63619)"><path d="M9 2H3C2.44772 2 2 2.44772 2 3V9C2 9.55228 2.44772 10 3 10H9C9.55228 10 10 9.55228 10 9V3C10 2.44772 9.55228 2 9 2Z" stroke="#7C3AED" stroke-linecap="round" stroke-linejoin="round"></path><path d="M7.5 4.5H4.5V7.5H7.5V4.5Z" stroke="#6938EF" stroke-linecap="round" stroke-linejoin="round"></path><path d="M4.5 1V2" stroke="#6938EF" stroke-linecap="round" stroke-linejoin="round"></path><path d="M7.5 1V2" stroke="#6938EF" stroke-linecap="round" stroke-linejoin="round"></path><path d="M4.5 10.5V11" stroke="#6938EF" stroke-linecap="round" stroke-linejoin="round"></path><path d="M7.5 10V11" stroke="#6938EF" stroke-linecap="round" stroke-linejoin="round"></path><path d="M10 4.5H11" stroke="#6938EF" stroke-linecap="round" stroke-linejoin="round"></path><path d="M10 7H11" stroke="#6938EF" stroke-linecap="round" stroke-linejoin="round"></path><path d="M1 4.5H2" stroke="#6938EF" stroke-linecap="round" stroke-linejoin="round"></path><path d="M1 7H2" stroke="#6938EF" stroke-linecap="round" stroke-linejoin="round"></path></g><defs><clipPath id="clip0_2096_63619"><rect width="12" height="12" fill="white"></rect></clipPath></defs></svg>