<svg width="12" height="12" viewBox="0 0 12 12" fill="none" xmlns="http://www.w3.org/2000/svg"><g id="hashtag"><g id="Vector"><mask id="path-1-inside-1_4122_14805" fill="white"><path d="M4.10319 6.89922L4.29219 5.09922H2.40039V4.19922H4.38714L4.62339 1.94922H5.52834L5.29209 4.19922H7.08714L7.32339 1.94922H8.22834L7.99209 4.19922H9.60039V5.09922H7.89759L7.70859 6.89922H9.60039V7.79922H7.61364L7.37739 10.0492H6.47244L6.70869 7.79922H4.91364L4.67739 10.0492H3.77244L4.00869 7.79922H2.40039V6.89922H4.10319ZM5.00814 6.89922H6.80364L6.99264 5.09922H5.19714L5.00814 6.89922Z"></path></mask><path d="M4.10319 6.89922L4.29219 5.09922H2.40039V4.19922H4.38714L4.62339 1.94922H5.52834L5.29209 4.19922H7.08714L7.32339 1.94922H8.22834L7.99209 4.19922H9.60039V5.09922H7.89759L7.70859 6.89922H9.60039V7.79922H7.61364L7.37739 10.0492H6.47244L6.70869 7.79922H4.91364L4.67739 10.0492H3.77244L4.00869 7.79922H2.40039V6.89922H4.10319ZM5.00814 6.89922H6.80364L6.99264 5.09922H5.19714L5.00814 6.89922Z" fill="#0E121B"></path><path d="M4.10319 6.89922V7.89922H5.00369L5.09772 7.00364L4.10319 6.89922ZM4.29219 5.09922L5.28672 5.20364L5.40269 4.09922H4.29219V5.09922ZM2.40039 5.09922H1.40039V6.09922H2.40039V5.09922ZM2.40039 4.19922V3.19922H1.40039V4.19922H2.40039ZM4.38714 4.19922V5.19922H5.28764L5.38167 4.30364L4.38714 4.19922ZM4.62339 1.94922V0.949219H3.72289L3.62886 1.84479L4.62339 1.94922ZM5.52834 1.94922L6.52287 2.05364L6.63884 0.949219H5.52834V1.94922ZM5.29209 4.19922L4.29756 4.09479L4.18159 5.19922H5.29209V4.19922ZM7.08714 4.19922V5.19922H7.98764L8.08167 4.30364L7.08714 4.19922ZM7.32339 1.94922V0.949219H6.42289L6.32886 1.84479L7.32339 1.94922ZM8.22834 1.94922L9.22287 2.05364L9.33884 0.949219H8.22834V1.94922ZM7.99209 4.19922L6.99756 4.09479L6.88159 5.19922H7.99209V4.19922ZM9.60039 4.19922H10.6004V3.19922H9.60039V4.19922ZM9.60039 5.09922V6.09922H10.6004V5.09922H9.60039ZM7.89759 5.09922V4.09922H6.99709L6.90306 4.99479L7.89759 5.09922ZM7.70859 6.89922L6.71406 6.79479L6.59809 7.89922H7.70859V6.89922ZM9.60039 6.89922H10.6004V5.89922H9.60039V6.89922ZM9.60039 7.79922V8.79922H10.6004V7.79922H9.60039ZM7.61364 7.79922V6.79922H6.71314L6.61911 7.69479L7.61364 7.79922ZM7.37739 10.0492V11.0492H8.27789L8.37192 10.1536L7.37739 10.0492ZM6.47244 10.0492L5.47791 9.94479L5.36194 11.0492H6.47244V10.0492ZM6.70869 7.79922L7.70322 7.90365L7.81919 6.79922H6.70869V7.79922ZM4.91364 7.79922V6.79922H4.01314L3.91911 7.69479L4.91364 7.79922ZM4.67739 10.0492V11.0492H5.57789L5.67192 10.1536L4.67739 10.0492ZM3.77244 10.0492L2.77791 9.94479L2.66194 11.0492H3.77244V10.0492ZM4.00869 7.79922L5.00322 7.90365L5.11919 6.79922H4.00869V7.79922ZM2.40039 7.79922H1.40039V8.79922H2.40039V7.79922ZM2.40039 6.89922V5.89922H1.40039V6.89922H2.40039ZM5.00814 6.89922L4.01361 6.79479L3.89764 7.89922H5.00814V6.89922ZM6.80364 6.89922V7.89922H7.70414L7.79817 7.00364L6.80364 6.89922ZM6.99264 5.09922L7.98717 5.20364L8.10314 4.09922H6.99264V5.09922ZM5.19714 5.09922V4.09922H4.29664L4.20261 4.99479L5.19714 5.09922ZM5.09772 7.00364L5.28672 5.20364L3.29766 4.99479L3.10866 6.79479L5.09772 7.00364ZM4.29219 4.09922H2.40039V6.09922H4.29219V4.09922ZM3.40039 5.09922V4.19922H1.40039V5.09922H3.40039ZM2.40039 5.19922H4.38714V3.19922H2.40039V5.19922ZM5.38167 4.30364L5.61792 2.05364L3.62886 1.84479L3.39261 4.09479L5.38167 4.30364ZM4.62339 2.94922H5.52834V0.949219H4.62339V2.94922ZM4.53381 1.84479L4.29756 4.09479L6.28662 4.30364L6.52287 2.05364L4.53381 1.84479ZM5.29209 5.19922H7.08714V3.19922H5.29209V5.19922ZM8.08167 4.30364L8.31792 2.05364L6.32886 1.84479L6.09261 4.09479L8.08167 4.30364ZM7.32339 2.94922H8.22834V0.949219H7.32339V2.94922ZM7.23381 1.84479L6.99756 4.09479L8.98662 4.30364L9.22287 2.05364L7.23381 1.84479ZM7.99209 5.19922H9.60039V3.19922H7.99209V5.19922ZM8.60039 4.19922V5.09922H10.6004V4.19922H8.60039ZM9.60039 4.09922H7.89759V6.09922H9.60039V4.09922ZM6.90306 4.99479L6.71406 6.79479L8.70312 7.00364L8.89212 5.20364L6.90306 4.99479ZM7.70859 7.89922H9.60039V5.89922H7.70859V7.89922ZM8.60039 6.89922V7.79922H10.6004V6.89922H8.60039ZM9.60039 6.79922H7.61364V8.79922H9.60039V6.79922ZM6.61911 7.69479L6.38286 9.94479L8.37192 10.1536L8.60817 7.90365L6.61911 7.69479ZM7.37739 9.04922H6.47244V11.0492H7.37739V9.04922ZM7.46697 10.1536L7.70322 7.90365L5.71416 7.69479L5.47791 9.94479L7.46697 10.1536ZM6.70869 6.79922H4.91364V8.79922H6.70869V6.79922ZM3.91911 7.69479L3.68286 9.94479L5.67192 10.1536L5.90817 7.90365L3.91911 7.69479ZM4.67739 9.04922H3.77244V11.0492H4.67739V9.04922ZM4.76697 10.1536L5.00322 7.90365L3.01416 7.69479L2.77791 9.94479L4.76697 10.1536ZM4.00869 6.79922H2.40039V8.79922H4.00869V6.79922ZM3.40039 7.79922V6.89922H1.40039V7.79922H3.40039ZM2.40039 7.89922H4.10319V5.89922H2.40039V7.89922ZM5.00814 7.89922H6.80364V5.89922H5.00814V7.89922ZM7.79817 7.00364L7.98717 5.20364L5.99811 4.99479L5.80911 6.79479L7.79817 7.00364ZM6.99264 4.09922H5.19714V6.09922H6.99264V4.09922ZM4.20261 4.99479L4.01361 6.79479L6.00267 7.00364L6.19167 5.20364L4.20261 4.99479Z" fill="var(--state-highlighted-dark)" mask="url(#path-1-inside-1_4122_14805)"></path></g></g></svg>