<svg width="12" height="12" viewBox="0 0 12 12" fill="none" xmlns="http://www.w3.org/2000/svg"><g id="分支 1" clip-path="url(#clip0_3998_80221)"><path id="Vector" d="M9.74964 0.75C10.0303 0.750067 10.3053 0.828878 10.5434 0.977472C10.7815 1.12607 10.9732 1.33848 11.0966 1.59057C11.2199 1.84266 11.2701 2.12432 11.2414 2.40351C11.2127 2.6827 11.1062 2.94824 10.9341 3.16992C10.7619 3.39161 10.5311 3.56056 10.2677 3.65756C10.0043 3.75457 9.71903 3.77573 9.44423 3.71865C9.16943 3.66157 8.91615 3.52854 8.71319 3.33468C8.51024 3.14081 8.36575 2.8939 8.29614 2.622C8.28072 2.62395 8.26519 2.62496 8.24964 2.625H6.74964C6.65018 2.625 6.5548 2.66451 6.48448 2.73483C6.41415 2.80516 6.37464 2.90054 6.37464 3V9C6.37464 9.207 6.54189 9.37425 6.74964 9.37425H8.24964C8.26539 9.37425 8.28114 9.375 8.29614 9.37725C8.38675 9.02331 8.60342 8.7146 8.90549 8.50908C9.20756 8.30356 9.57426 8.21535 9.93675 8.26101C10.2992 8.30667 10.6326 8.48307 10.8743 8.75708C11.1159 9.0311 11.2493 9.38389 11.2493 9.74925C11.2493 10.1146 11.1159 10.4674 10.8743 10.7414C10.6326 11.0154 10.2992 11.1918 9.93675 11.2375C9.57426 11.2831 9.20756 11.1949 8.90549 10.9894C8.60342 10.7839 8.38675 10.4752 8.29614 10.1212C8.28072 10.1232 8.26519 10.1242 8.24964 10.1242H6.74964C6.12864 10.1242 5.62464 9.62175 5.62464 9V6.375H3.74964C3.73409 6.37496 3.71856 6.37396 3.70314 6.372C3.61253 6.72594 3.39586 7.03465 3.09379 7.24017C2.79172 7.44569 2.42502 7.5339 2.06253 7.48824C1.70004 7.44258 1.36667 7.26618 1.12501 6.99217C0.883346 6.71815 0.75 6.36536 0.75 6C0.75 5.63464 0.883346 5.28185 1.12501 5.00783C1.36667 4.73382 1.70004 4.55742 2.06253 4.51176C2.42502 4.4661 2.79172 4.55431 3.09379 4.75983C3.39586 4.96535 3.61253 5.27406 3.70314 5.628C3.71856 5.62604 3.73409 5.62504 3.74964 5.625H5.62464V3C5.62464 2.70163 5.74317 2.41548 5.95414 2.2045C6.16512 1.99353 6.45127 1.875 6.74964 1.875H8.24964C8.26539 1.875 8.28114 1.87575 8.29614 1.878C8.37876 1.55527 8.56646 1.26923 8.82964 1.06498C9.09282 0.860741 9.4165 0.74992 9.74964 0.75ZM10.4996 2.25C10.4996 2.05109 10.4206 1.86032 10.28 1.71967C10.1393 1.57902 9.94855 1.5 9.74964 1.5C9.55073 1.5 9.35996 1.57902 9.21931 1.71967C9.07866 1.86032 8.99964 2.05109 8.99964 2.25C8.99964 2.44891 9.07866 2.63968 9.21931 2.78033C9.35996 2.92098 9.55073 3 9.74964 3C9.94855 3 10.1393 2.92098 10.28 2.78033C10.4206 2.63968 10.4996 2.44891 10.4996 2.25ZM10.4996 9.75C10.4996 9.55109 10.4206 9.36032 10.28 9.21967C10.1393 9.07902 9.94855 9 9.74964 9C9.55073 9 9.35996 9.07902 9.21931 9.21967C9.07866 9.36032 8.99964 9.55109 8.99964 9.75C8.99964 9.94891 9.07866 10.1397 9.21931 10.2803C9.35996 10.421 9.55073 10.5 9.74964 10.5C9.94855 10.5 10.1393 10.421 10.28 10.2803C10.4206 10.1397 10.4996 9.94891 10.4996 9.75ZM2.24964 5.25C2.05073 5.25 1.85996 5.32902 1.71931 5.46967C1.57866 5.61032 1.49964 5.80109 1.49964 6C1.49964 6.19891 1.57866 6.38968 1.71931 6.53033C1.85996 6.67098 2.05073 6.75 2.24964 6.75C2.44855 6.75 2.63932 6.67098 2.77997 6.53033C2.92062 6.38968 2.99964 6.19891 2.99964 6C2.99964 5.80109 2.92062 5.61032 2.77997 5.46967C2.63932 5.32902 2.44855 5.25 2.24964 5.25Z" fill="#8A8A8A"></path></g><defs><clipPath id="clip0_3998_80221"><rect width="12" height="12" fill="var(--icon-white-0)"></rect></clipPath></defs></svg>