<svg width="12" height="12" viewBox="0 0 12 12" fill="none" xmlns="http://www.w3.org/2000/svg"><g id="loader-line"><g id="Vector"><mask id="path-1-inside-1_4122_31335" fill="var(--icon-white-0)"><path d="M1.5 6.00105C1.5 5.88171 1.54741 5.76725 1.6318 5.68285C1.71619 5.59846 1.83065 5.55105 1.95 5.55105L3.3 5.55105C3.41935 5.55105 3.53381 5.59846 3.6182 5.68285C3.70259 5.76725 3.75 5.88171 3.75 6.00105C3.75 6.1204 3.70259 6.23486 3.6182 6.31925C3.53381 6.40364 3.41935 6.45105 3.3 6.45105L1.95 6.45105C1.83065 6.45105 1.71619 6.40364 1.6318 6.31925C1.54741 6.23486 1.5 6.1204 1.5 6.00105ZM8.25 6.00105C8.25 5.88171 8.29741 5.76725 8.3818 5.68285C8.46619 5.59846 8.58065 5.55105 8.7 5.55105L10.05 5.55105C10.1693 5.55105 10.2838 5.59846 10.3682 5.68285C10.4526 5.76725 10.5 5.88171 10.5 6.00105C10.5 6.1204 10.4526 6.23486 10.3682 6.31925C10.2838 6.40364 10.1693 6.45105 10.05 6.45105L8.7 6.45105C8.58065 6.45105 8.46619 6.40364 8.3818 6.31925C8.29741 6.23486 8.25 6.1204 8.25 6.00105ZM3.75 2.10405C3.85336 2.04438 3.97618 2.02821 4.09146 2.0591C4.20674 2.08999 4.30502 2.1654 4.3647 2.26875L5.0397 3.43785C5.06971 3.48905 5.0893 3.54568 5.09734 3.60448C5.10538 3.66328 5.10171 3.72308 5.08654 3.78046C5.07138 3.83783 5.04501 3.89164 5.00896 3.93878C4.97291 3.98593 4.92789 4.02547 4.8765 4.05515C4.8251 4.08482 4.76835 4.10403 4.70949 4.11168C4.65064 4.11933 4.59086 4.11527 4.53359 4.09972C4.47632 4.08417 4.42268 4.05744 4.37578 4.02108C4.32888 3.98472 4.28963 3.93944 4.2603 3.88785L3.5853 2.71875C3.52563 2.6154 3.50946 2.49257 3.54035 2.37729C3.57123 2.26202 3.64665 2.16373 3.75 2.10405ZM7.125 7.94955C7.22836 7.88988 7.35118 7.87371 7.46646 7.9046C7.58174 7.93549 7.68002 8.0109 7.7397 8.11425L8.4147 9.28335C8.44471 9.33455 8.4643 9.39118 8.47234 9.44998C8.48038 9.50878 8.47671 9.56858 8.46154 9.62596C8.44638 9.68333 8.42001 9.73714 8.38396 9.78428C8.34791 9.83143 8.30289 9.87097 8.2515 9.90065C8.2001 9.93032 8.14335 9.94953 8.0845 9.95718C8.02564 9.96483 7.96586 9.96077 7.90859 9.94522C7.85132 9.92967 7.79768 9.90294 7.75078 9.86658C7.70388 9.83022 7.66463 9.78494 7.6353 9.73335L6.9603 8.56425C6.90063 8.4609 6.88446 8.33807 6.91535 8.22279C6.94623 8.10752 7.02165 8.00923 7.125 7.94955ZM8.25 2.10405C8.35335 2.16373 8.42877 2.26202 8.45965 2.37729C8.49054 2.49257 8.47437 2.6154 8.4147 2.71875L7.7397 3.88785C7.6796 3.99037 7.5814 4.06495 7.46651 4.09532C7.35163 4.12569 7.2294 4.10939 7.12649 4.04998C7.02358 3.99056 6.94835 3.89285 6.91721 3.77817C6.88608 3.66349 6.90157 3.54115 6.9603 3.43785L7.6353 2.26875C7.69498 2.1654 7.79326 2.08999 7.90854 2.0591C8.02382 2.02821 8.14664 2.04438 8.25 2.10405ZM4.875 7.94955C4.97835 8.00923 5.05377 8.10752 5.08465 8.22279C5.11554 8.33807 5.09937 8.4609 5.0397 8.56425L4.3647 9.73335C4.33537 9.78494 4.29612 9.83022 4.24922 9.86658C4.20232 9.90294 4.14868 9.92967 4.09141 9.94522C4.03414 9.96077 3.97436 9.96483 3.9155 9.95718C3.85665 9.94953 3.7999 9.93032 3.7485 9.90065C3.69711 9.87097 3.65209 9.83143 3.61604 9.78428C3.57999 9.73714 3.55362 9.68333 3.53846 9.62596C3.52329 9.56858 3.51962 9.50878 3.52766 9.44998C3.5357 9.39118 3.55529 9.33455 3.5853 9.28335L4.2603 8.11425C4.31998 8.0109 4.41826 7.93549 4.53354 7.9046C4.64882 7.87371 4.77164 7.88988 4.875 7.94955Z"></path></mask><path d="M1.5 6.00105C1.5 5.88171 1.54741 5.76725 1.6318 5.68285C1.71619 5.59846 1.83065 5.55105 1.95 5.55105L3.3 5.55105C3.41935 5.55105 3.53381 5.59846 3.6182 5.68285C3.70259 5.76725 3.75 5.88171 3.75 6.00105C3.75 6.1204 3.70259 6.23486 3.6182 6.31925C3.53381 6.40364 3.41935 6.45105 3.3 6.45105L1.95 6.45105C1.83065 6.45105 1.71619 6.40364 1.6318 6.31925C1.54741 6.23486 1.5 6.1204 1.5 6.00105ZM8.25 6.00105C8.25 5.88171 8.29741 5.76725 8.3818 5.68285C8.46619 5.59846 8.58065 5.55105 8.7 5.55105L10.05 5.55105C10.1693 5.55105 10.2838 5.59846 10.3682 5.68285C10.4526 5.76725 10.5 5.88171 10.5 6.00105C10.5 6.1204 10.4526 6.23486 10.3682 6.31925C10.2838 6.40364 10.1693 6.45105 10.05 6.45105L8.7 6.45105C8.58065 6.45105 8.46619 6.40364 8.3818 6.31925C8.29741 6.23486 8.25 6.1204 8.25 6.00105ZM3.75 2.10405C3.85336 2.04438 3.97618 2.02821 4.09146 2.0591C4.20674 2.08999 4.30502 2.1654 4.3647 2.26875L5.0397 3.43785C5.06971 3.48905 5.0893 3.54568 5.09734 3.60448C5.10538 3.66328 5.10171 3.72308 5.08654 3.78046C5.07138 3.83783 5.04501 3.89164 5.00896 3.93878C4.97291 3.98593 4.92789 4.02547 4.8765 4.05515C4.8251 4.08482 4.76835 4.10403 4.70949 4.11168C4.65064 4.11933 4.59086 4.11527 4.53359 4.09972C4.47632 4.08417 4.42268 4.05744 4.37578 4.02108C4.32888 3.98472 4.28963 3.93944 4.2603 3.88785L3.5853 2.71875C3.52563 2.6154 3.50946 2.49257 3.54035 2.37729C3.57123 2.26202 3.64665 2.16373 3.75 2.10405ZM7.125 7.94955C7.22836 7.88988 7.35118 7.87371 7.46646 7.9046C7.58174 7.93549 7.68002 8.0109 7.7397 8.11425L8.4147 9.28335C8.44471 9.33455 8.4643 9.39118 8.47234 9.44998C8.48038 9.50878 8.47671 9.56858 8.46154 9.62596C8.44638 9.68333 8.42001 9.73714 8.38396 9.78428C8.34791 9.83143 8.30289 9.87097 8.2515 9.90065C8.2001 9.93032 8.14335 9.94953 8.0845 9.95718C8.02564 9.96483 7.96586 9.96077 7.90859 9.94522C7.85132 9.92967 7.79768 9.90294 7.75078 9.86658C7.70388 9.83022 7.66463 9.78494 7.6353 9.73335L6.9603 8.56425C6.90063 8.4609 6.88446 8.33807 6.91535 8.22279C6.94623 8.10752 7.02165 8.00923 7.125 7.94955ZM8.25 2.10405C8.35335 2.16373 8.42877 2.26202 8.45965 2.37729C8.49054 2.49257 8.47437 2.6154 8.4147 2.71875L7.7397 3.88785C7.6796 3.99037 7.5814 4.06495 7.46651 4.09532C7.35163 4.12569 7.2294 4.10939 7.12649 4.04998C7.02358 3.99056 6.94835 3.89285 6.91721 3.77817C6.88608 3.66349 6.90157 3.54115 6.9603 3.43785L7.6353 2.26875C7.69498 2.1654 7.79326 2.08999 7.90854 2.0591C8.02382 2.02821 8.14664 2.04438 8.25 2.10405ZM4.875 7.94955C4.97835 8.00923 5.05377 8.10752 5.08465 8.22279C5.11554 8.33807 5.09937 8.4609 5.0397 8.56425L4.3647 9.73335C4.33537 9.78494 4.29612 9.83022 4.24922 9.86658C4.20232 9.90294 4.14868 9.92967 4.09141 9.94522C4.03414 9.96077 3.97436 9.96483 3.9155 9.95718C3.85665 9.94953 3.7999 9.93032 3.7485 9.90065C3.69711 9.87097 3.65209 9.83143 3.61604 9.78428C3.57999 9.73714 3.55362 9.68333 3.53846 9.62596C3.52329 9.56858 3.51962 9.50878 3.52766 9.44998C3.5357 9.39118 3.55529 9.33455 3.5853 9.28335L4.2603 8.11425C4.31998 8.0109 4.41826 7.93549 4.53354 7.9046C4.64882 7.87371 4.77164 7.88988 4.875 7.94955Z" fill="#0E121B"></path><path d="M4.3647 2.26875L5.23072 1.76874L5.23071 1.76872L4.3647 2.26875ZM5.0397 3.43785L4.17366 3.93788L4.17702 3.9436L5.0397 3.43785ZM4.2603 3.88785L5.12964 3.39359L5.12632 3.38784L4.2603 3.88785ZM3.5853 2.71875L2.71927 3.21875L2.71928 3.21876L3.5853 2.71875ZM7.125 7.94955L6.62501 7.08352L6.62497 7.08354L7.125 7.94955ZM7.7397 8.11425L8.60572 7.61424L8.60571 7.61422L7.7397 8.11425ZM8.4147 9.28335L7.54866 9.78337L7.55202 9.7891L8.4147 9.28335ZM7.6353 9.73335L8.50464 9.23909L8.50132 9.23334L7.6353 9.73335ZM6.9603 8.56425L6.09427 9.06424L6.09428 9.06426L6.9603 8.56425ZM8.25 2.10405L8.75003 1.23805L8.74999 1.23802L8.25 2.10405ZM8.4147 2.71875L9.28072 3.21876L9.28073 3.21875L8.4147 2.71875ZM7.7397 3.88785L8.6024 4.39361L8.60572 4.38786L7.7397 3.88785ZM6.9603 3.43785L6.09426 2.93783L6.09098 2.9436L6.9603 3.43785ZM7.6353 2.26875L6.76929 1.76872L6.76928 1.76874L7.6353 2.26875ZM4.875 7.94955L5.37503 7.08354L5.37499 7.08352L4.875 7.94955ZM5.0397 8.56425L5.90572 9.06426L5.90573 9.06424L5.0397 8.56425ZM4.3647 9.73335L3.49866 9.23333L3.49538 9.2391L4.3647 9.73335ZM3.5853 9.28335L4.448 9.78911L4.45132 9.78336L3.5853 9.28335ZM4.2603 8.11425L3.39429 7.61422L3.39428 7.61424L4.2603 8.11425ZM2.5 6.00105C2.5 6.14692 2.44205 6.28682 2.33891 6.38996L0.924695 4.97575C0.652768 5.24768 0.5 5.61649 0.5 6.00105L2.5 6.00105ZM2.33891 6.38996C2.23576 6.49311 2.09587 6.55105 1.95 6.55105L1.95 4.55105C1.56544 4.55105 1.19662 4.70382 0.924695 4.97575L2.33891 6.38996ZM1.95 6.55105L3.3 6.55105L3.3 4.55105L1.95 4.55105L1.95 6.55105ZM3.3 6.55105C3.15413 6.55105 3.01424 6.49311 2.91109 6.38996L4.3253 4.97575C4.05338 4.70382 3.68456 4.55105 3.3 4.55105L3.3 6.55105ZM2.91109 6.38996C2.80795 6.28682 2.75 6.14692 2.75 6.00105L4.75 6.00105C4.75 5.61649 4.59723 5.24768 4.3253 4.97575L2.91109 6.38996ZM2.75 6.00105C2.75 5.85518 2.80795 5.71529 2.91109 5.61214L4.3253 7.02636C4.59723 6.75443 4.75 6.38562 4.75 6.00105L2.75 6.00105ZM2.91109 5.61214C3.01424 5.509 3.15413 5.45105 3.3 5.45105L3.3 7.45105C3.68456 7.45105 4.05338 7.29828 4.3253 7.02636L2.91109 5.61214ZM3.3 5.45105L1.95 5.45105L1.95 7.45105L3.3 7.45105L3.3 5.45105ZM1.95 5.45105C2.09587 5.45105 2.23576 5.509 2.33891 5.61214L0.924695 7.02636C1.19662 7.29829 1.56544 7.45105 1.95 7.45105L1.95 5.45105ZM2.33891 5.61214C2.44205 5.71529 2.5 5.85518 2.5 6.00105L0.5 6.00105C0.5 6.38562 0.652768 6.75443 0.924695 7.02636L2.33891 5.61214ZM9.25 6.00105C9.25 6.14692 9.19205 6.28682 9.08891 6.38996L7.67469 4.97575C7.40277 5.24768 7.25 5.61649 7.25 6.00105L9.25 6.00105ZM9.08891 6.38996C8.98576 6.49311 8.84587 6.55105 8.7 6.55105L8.7 4.55105C8.31544 4.55105 7.94662 4.70382 7.67469 4.97575L9.08891 6.38996ZM8.7 6.55105L10.05 6.55105L10.05 4.55105L8.7 4.55105L8.7 6.55105ZM10.05 6.55105C9.90413 6.55105 9.76424 6.49311 9.66109 6.38996L11.0753 4.97575C10.8034 4.70382 10.4346 4.55105 10.05 4.55105L10.05 6.55105ZM9.66109 6.38996C9.55795 6.28682 9.5 6.14692 9.5 6.00105L11.5 6.00105C11.5 5.61649 11.3472 5.24768 11.0753 4.97575L9.66109 6.38996ZM9.5 6.00105C9.5 5.85519 9.55795 5.71529 9.66109 5.61214L11.0753 7.02636C11.3472 6.75443 11.5 6.38561 11.5 6.00105L9.5 6.00105ZM9.66109 5.61214C9.76424 5.509 9.90413 5.45105 10.05 5.45105L10.05 7.45105C10.4346 7.45105 10.8034 7.29829 11.0753 7.02636L9.66109 5.61214ZM10.05 5.45105L8.7 5.45105L8.7 7.45105L10.05 7.45105L10.05 5.45105ZM8.7 5.45105C8.84587 5.45105 8.98576 5.509 9.08891 5.61214L7.67469 7.02636C7.94662 7.29829 8.31544 7.45105 8.7 7.45105L8.7 5.45105ZM9.08891 5.61214C9.19205 5.71529 9.25 5.85519 9.25 6.00105L7.25 6.00105C7.25 6.38561 7.40277 6.75443 7.67469 7.02636L9.08891 5.61214ZM4.24999 2.97008C4.12367 3.04301 3.97355 3.06278 3.83265 3.02503L4.35027 1.09317C3.97881 0.993645 3.58304 1.04575 3.25001 1.23802L4.24999 2.97008ZM3.83265 3.02503C3.69176 2.98728 3.57163 2.8951 3.49869 2.76878L5.23071 1.76872C5.03842 1.4357 4.72172 1.19269 4.35027 1.09317L3.83265 3.02503ZM3.49868 2.76876L4.17368 3.93786L5.90572 2.93784L5.23072 1.76874L3.49868 2.76876ZM4.17702 3.9436C4.14033 3.88103 4.11639 3.81182 4.10656 3.73995L6.08813 3.46901C6.06222 3.27954 5.99909 3.09707 5.90238 2.93211L4.17702 3.9436ZM4.10656 3.73995C4.09674 3.66808 4.10122 3.59498 4.11976 3.52486L6.05333 4.03606C6.1022 3.85119 6.11403 3.65847 6.08813 3.46901L4.10656 3.73995ZM4.11976 3.52486C4.1383 3.45474 4.17053 3.38897 4.21459 3.33135L5.80333 4.54622C5.91949 4.39431 6.00445 4.22093 6.05333 4.03606L4.11976 3.52486ZM4.21459 3.33135C4.25865 3.27373 4.31367 3.2254 4.37649 3.18913L5.37651 4.92117C5.54211 4.82555 5.68717 4.69812 5.80333 4.54622L4.21459 3.33135ZM4.37649 3.18913C4.4393 3.15286 4.50867 3.12938 4.5806 3.12003L4.83839 5.10334C5.02802 5.07869 5.2109 5.01678 5.37651 4.92117L4.37649 3.18913ZM4.5806 3.12003C4.65253 3.11068 4.72559 3.11565 4.7956 3.13465L4.27158 5.06478C4.45613 5.11489 4.64876 5.12799 4.83839 5.10334L4.5806 3.12003ZM4.7956 3.13465C4.8656 3.15366 4.93115 3.18632 4.98847 3.23076L3.76309 4.81141C3.91422 4.92857 4.08703 5.01468 4.27158 5.06478L4.7956 3.13465ZM4.98847 3.23076C5.04579 3.2752 5.09376 3.33054 5.12962 3.3936L3.39098 4.38211C3.4855 4.54835 3.61196 4.69425 3.76309 4.81141L4.98847 3.23076ZM5.12632 3.38784L4.45132 2.21874L2.71928 3.21876L3.39428 4.38786L5.12632 3.38784ZM4.45133 2.21876C4.52426 2.34509 4.54403 2.49521 4.50627 2.6361L2.57442 2.11849C2.47489 2.48994 2.527 2.88571 2.71927 3.21875L4.45133 2.21876ZM4.50627 2.6361C4.46852 2.777 4.37635 2.89713 4.25003 2.97006L3.24997 1.23805C2.91694 1.43033 2.67394 1.74704 2.57442 2.11849L4.50627 2.6361ZM7.62499 8.81558C7.49867 8.88851 7.34855 8.90828 7.20765 8.87053L7.72527 6.93867C7.35382 6.83914 6.95804 6.89125 6.62501 7.08352L7.62499 8.81558ZM7.20765 8.87053C7.06676 8.83278 6.94663 8.7406 6.87369 8.61428L8.60571 7.61422C8.41342 7.2812 8.09672 7.03819 7.72527 6.93867L7.20765 8.87053ZM6.87368 8.61426L7.54868 9.78336L9.28072 8.78334L8.60572 7.61424L6.87368 8.61426ZM7.55202 9.7891C7.51534 9.72653 7.49139 9.65732 7.48156 9.58545L9.46313 9.31451C9.43722 9.12504 9.37409 8.94257 9.27738 8.77761L7.55202 9.7891ZM7.48156 9.58545C7.47174 9.51358 7.47622 9.44048 7.49476 9.37036L9.42833 9.88156C9.4772 9.69669 9.48903 9.50397 9.46313 9.31451L7.48156 9.58545ZM7.49476 9.37036C7.5133 9.30023 7.54553 9.23447 7.58959 9.17685L9.17833 10.3917C9.29448 10.2398 9.37945 10.0664 9.42833 9.88156L7.49476 9.37036ZM7.58959 9.17685C7.63365 9.11923 7.68867 9.0709 7.75149 9.03463L8.75151 10.7667C8.91712 10.671 9.06217 10.5436 9.17833 10.3917L7.58959 9.17685ZM7.75149 9.03463C7.8143 8.99836 7.88367 8.97487 7.9556 8.96553L8.21339 10.9488C8.40302 10.9242 8.5859 10.8623 8.75151 10.7667L7.75149 9.03463ZM7.9556 8.96553C8.02753 8.95618 8.1006 8.96115 8.1706 8.98015L7.64658 10.9103C7.83112 10.9604 8.02376 10.9735 8.21339 10.9488L7.9556 8.96553ZM8.1706 8.98015C8.2406 8.99916 8.30615 9.03182 8.36347 9.07626L7.13809 10.6569C7.28922 10.7741 7.46204 10.8602 7.64658 10.9103L8.1706 8.98015ZM8.36347 9.07626C8.4208 9.1207 8.46877 9.17604 8.50462 9.2391L6.76598 10.2276C6.8605 10.3938 6.98696 10.5397 7.13809 10.6569L8.36347 9.07626ZM8.50132 9.23334L7.82632 8.06424L6.09428 9.06426L6.76928 10.2334L8.50132 9.23334ZM7.82633 8.06426C7.89926 8.19058 7.91903 8.3407 7.88127 8.4816L5.94942 7.96399C5.84989 8.33544 5.902 8.73121 6.09427 9.06424L7.82633 8.06426ZM7.88127 8.4816C7.84352 8.6225 7.75135 8.74262 7.62503 8.81556L6.62497 7.08354C6.29194 7.27583 6.04894 7.59254 5.94942 7.96399L7.88127 8.4816ZM7.74997 2.97006C7.62365 2.89712 7.53148 2.777 7.49372 2.6361L9.42558 2.11849C9.32606 1.74704 9.08306 1.43033 8.75003 1.23805L7.74997 2.97006ZM7.49372 2.6361C7.45597 2.4952 7.47574 2.34508 7.54867 2.21876L9.28073 3.21875C9.473 2.88571 9.52511 2.48994 9.42558 2.11849L7.49372 2.6361ZM7.54868 2.21874L6.87368 3.38784L8.60572 4.38786L9.28072 3.21876L7.54868 2.21874ZM6.87702 3.38211C6.95047 3.25681 7.0705 3.16566 7.21091 3.12854L7.72212 5.0621C8.09229 4.96423 8.40873 4.72392 8.60238 4.3936L6.87702 3.38211ZM7.21091 3.12854C7.35132 3.09141 7.50072 3.11134 7.6265 3.18396L6.62648 4.916C6.95807 5.10745 7.35194 5.15997 7.72212 5.0621L7.21091 3.12854ZM7.6265 3.18396C7.75228 3.25658 7.84422 3.376 7.88228 3.51616L5.95215 4.04018C6.05247 4.4097 6.29488 4.72454 6.62648 4.916L7.6265 3.18396ZM7.88228 3.51616C7.92033 3.65633 7.9014 3.80585 7.82962 3.93211L6.09098 2.9436C5.90173 3.27646 5.85182 3.67066 5.95215 4.04018L7.88228 3.51616ZM7.82632 3.93786L8.50132 2.76876L6.76928 1.76874L6.09428 2.93784L7.82632 3.93786ZM8.50131 2.76878C8.42837 2.8951 8.30824 2.98728 8.16735 3.02503L7.64973 1.09317C7.27828 1.19269 6.96158 1.4357 6.76929 1.76872L8.50131 2.76878ZM8.16735 3.02503C8.02645 3.06278 7.87633 3.04301 7.75001 2.97008L8.74999 1.23802C8.41696 1.04575 8.02119 0.993645 7.64973 1.09317L8.16735 3.02503ZM4.37497 8.81556C4.24865 8.74262 4.15648 8.6225 4.11873 8.4816L6.05058 7.96399C5.95106 7.59254 5.70806 7.27583 5.37503 7.08354L4.37497 8.81556ZM4.11873 8.4816C4.08097 8.3407 4.10074 8.19058 4.17367 8.06426L5.90573 9.06424C6.098 8.73121 6.15011 8.33544 6.05058 7.96399L4.11873 8.4816ZM4.17368 8.06424L3.49868 9.23334L5.23072 10.2334L5.90572 9.06426L4.17368 8.06424ZM3.49538 9.2391C3.53123 9.17604 3.5792 9.1207 3.63653 9.07626L4.86191 10.6569C5.01304 10.5397 5.1395 10.3938 5.23402 10.2276L3.49538 9.2391ZM3.63653 9.07626C3.69385 9.03182 3.7594 8.99916 3.8294 8.98015L4.35342 10.9103C4.53797 10.8602 4.71078 10.7741 4.86191 10.6569L3.63653 9.07626ZM3.8294 8.98015C3.8994 8.96115 3.97247 8.95618 4.0444 8.96553L3.78661 10.9488C3.97624 10.9735 4.16888 10.9604 4.35342 10.9103L3.8294 8.98015ZM4.0444 8.96553C4.11633 8.97487 4.1857 8.99836 4.24851 9.03463L3.24849 10.7667C3.4141 10.8623 3.59698 10.9242 3.78661 10.9488L4.0444 8.96553ZM4.24851 9.03463C4.31133 9.0709 4.36635 9.11923 4.41041 9.17685L2.82167 10.3917C2.93783 10.5436 3.08289 10.671 3.24849 10.7667L4.24851 9.03463ZM4.41041 9.17685C4.45447 9.23447 4.4867 9.30023 4.50524 9.37036L2.57167 9.88156C2.62055 10.0664 2.70551 10.2398 2.82167 10.3917L4.41041 9.17685ZM4.50524 9.37036C4.52378 9.44048 4.52826 9.51358 4.51844 9.58545L2.53687 9.31451C2.51097 9.50397 2.5228 9.69669 2.57167 9.88156L4.50524 9.37036ZM4.51844 9.58545C4.50861 9.65731 4.48467 9.72652 4.44798 9.7891L2.72262 8.77761C2.6259 8.94258 2.56278 9.12504 2.53687 9.31451L4.51844 9.58545ZM4.45132 9.78336L5.12632 8.61426L3.39428 7.61424L2.71928 8.78334L4.45132 9.78336ZM5.12631 8.61428C5.05337 8.7406 4.93324 8.83278 4.79235 8.87053L4.27473 6.93867C3.90328 7.03819 3.58658 7.2812 3.39429 7.61422L5.12631 8.61428ZM4.79235 8.87053C4.65145 8.90828 4.50133 8.88851 4.37501 8.81558L5.37499 7.08352C5.04196 6.89125 4.64618 6.83914 4.27473 6.93867L4.79235 8.87053Z" fill="#525866" mask="url(#path-1-inside-1_4122_31335)"></path></g></g></svg>